#!OML:ASF F:\VICON\USERDATA\INSTALL\rory3\rory3.ASF
:FULLY-SPECIFIED
:DEGREES
51
root 0.7520300421173503 17.936514873872717 18.021623351819695 -3.7495975259719714 -2.7832014566274923 1.0266793606976088
lfemur -7.2156285963895535 -3.9773884609050136 -26.147848761144537
ltibia 24.900705614923467
lfoot -10.546318916809668 0.6047398729518609
ltoes -5.848930884304377
rfemur -21.323902446875998 3.122932499903914 22.00802490736048
rtibia 76.47214213986479
rfoot -5.422738147181153 -6.159012927812049
rtoes 9.523704620485319
lowerback nan 0.317596394126485 -0.42525202394443995
upperback 0.3041771226903165 0.5830434522462757 0.6645042204326497
thorax -5.684617207543064 0.316700770073144 0.7643240033492236
lowerneck -16.298256220128735 -2.779521810730027 -1.9388281135337522
upperneck 21.927173595662914 -3.4834976458680518 0.29446535470724355
head 9.664000476165738 -1.7541503277973194 -0.0415311315738591
lclavicle 1.3076543139274415e-15 -6.461735474237792e-16
lhumerus -31.232974806458394 5.29371324438668 79.19391538599905
lradius 23.86621344226525
lwrist 6.210502013729893
lhand -28.752866886545377 19.284864092446025
lfingers nan
lthumb -2.6329349931458603 47.701246914205555
rclavicle 6.116250994308441e-17 -1.6522264355506609e-15
rhumerus -29.031950206926663 -20.103420726987856 -78.72561514277841
rradius 29.59067837222157
rwrist -2.9636481546409774
rhand -18.20826001428697 nan
rfingers nan
rthumb 7.879571275565255 -7.613916642344017
52
root 0.7413949081801228 17.910392536704187 18.53291753063249 -3.5064789031612955 -2.0906218513600567 1.430281586488197
lfemur -4.963182170915827 -3.9013898840074916 -26.813680479459343
ltibia 24.757248878310907
lfoot -10.751984776687255 0.46900700879023915
ltoes -6.35135472062966
rfemur -23.37114229506362 3.037991028705987 21.622619617963007
rtibia 70.7498312629388
rfoot -8.476273004703245 -7.60940683930639
rtoes 5.191759838004764
lowerback nan -0.0495120502645085 -1.0700715216652348
upperback 0.34126317859268485 0.023925859778137104 0.782209398698895
thorax -5.68526499158303 0.043936557174716784 1.2761740552332153
lowerneck -16.268918586600094 -2.7477168593381815 -2.0248997052643607
upperneck 21.814139046305577 -3.402215016581866 0.3035323463275415
head 9.62385605037056 -1.72594162364907 -0.0010471507070068872
lclavicle 1.0315116913388535e-15 -7.5836784645394335e-16
lhumerus -29.486844324415852 3.3168234926208138 79.42678280018524
lradius 25.461391088490753
lwrist 6.669396636492442
lhand -28.058132600417668 20.860424428128038
lfingers nan
lthumb -1.930902481579385 49.16658039833506
rclavicle -4.2900341009287136e-17 -1.6530097932945873e-15
rhumerus -29.999509024756122 -20.558808851221983 -78.19385416864554
rradius 29.587683232863895
rwrist -3.046642093100135
rhand -18.228033742027446 nan
rfingers nan
rthumb 7.873666855326205 -7.620035946893352
53
root 0.7241837294085682 17.91477555408921 18.715555133765054 -3.06421147719872 -1.330240290770229 1.825734674804428
lfemur -2.18147780995883 -3.5563619945526197 -27.295099260277652
ltibia 23.412993982392532
lfoot -9.955603778356377 -0.3978091068003571
ltoes -7.514779827688734
rfemur -23.976412432591616 3.517593437742738 21.142460731191118
rtibia 61.90325582980785
rfoot -9.13182743725043 -9.309009748787872
rtoes 2.553116811214829
lowerback nan -0.3879862261118689 -1.7103954416118128
upperback 0.37514510983733096 -0.5121964366758347 0.8723689408237223
thorax -5.577891454958701 -0.21325203798952896 1.8084647541385408
lowerneck -16.27485261867266 -2.7551502277551534 -2.1018351730127423
upperneck 21.657676084612607 -3.399189009920907 0.36373514527557993
head 9.57483277626965 -1.7232048117094914 0.03713287291315299
lclavicle 6.9171739714893915e-16 -9.99521514597545e-16
lhumerus -27.886149258603616 1.6295016042467743 79.49927009225198
lradius 27.069154748530178
lwrist 7.279988424725747
lhand -27.588765700426123 22.33083648447279
lfingers nan
lthumb -1.2346371706851933 50.999671986065195
rclavicle -3.6344389342606347e-16 -1.8688639997323654e-15
rhumerus -30.945133632231993 -21.130282829867124 -77.60799717040368
rradius 29.416328301848328
rwrist -2.8951457473480318
rhand -18.25743032175261 nan
rfingers nan
rthumb 7.8549770503874345 -7.59114893896477
54
root 0.6849547507857531 17.92181731317262 19.031224878964476 -2.373101676268332 -0.65637146157667 2.188264783775571
lfemur 1.2380533708740575 -2.8579586094007956 -27.590404486842456
ltibia 20.669804858535528
lfoot -8.20493082639606 -1.7757484187304486
ltoes -9.184814484148935
rfemur -24.451671500557424 4.660422904513406 20.122573966557955
rtibia 50.85019218122267
rfoot -8.303542130787275 -10.985193330603863
rtoes 2.1241313646371807
lowerback nan -0.6605025888069014 -2.2846342299557802
upperback 0.40572487136216484 -0.9480581102006722 0.9280829663537196
thorax -5.3566895286853144 -0.4205463822910932 2.29615129502009
lowerneck -16.294575739976445 -2.7735825850105464 -2.143889234580079
upperneck 21.47313404665028 -3.430881882084812 0.47245556485636264
head 9.51463247505801 -1.7278766732304114 0.0837471307665292
lclavicle 7.859022585193832e-16 -9.494709899701845e-16
lhumerus -26.467173292467677 0.3822942113261547 79.46062783518367
lradius 28.54644653600037
lwrist 8.247954359189642
lhand -27.731923478853382 22.631203993746418
lfingers nan
lthumb -1.1274085168575698 51.976879678551114
rclavicle -3.5295584013545627e-16 -1.850991303678024e-15
rhumerus -31.94143780746306 -21.974943410683764 -76.90457575823729
rradius 29.037250092413153
rwrist -2.474731018140866
rhand -18.280366420371063 nan
rfingers nan
rthumb 7.834113655511171 -7.543908890652432
